<svg xmlns="http://www.w3.org/2000/svg" viewBox="0 0 750 750"><defs><style>.cls-1{fill:#4d4d4d;}.cls-1,.cls-2,.cls-3,.cls-4{fill-rule:evenodd;}.cls-2,.cls-5{fill:#fff;}.cls-3{fill:#b31e23;}.cls-4{fill:#392aa3;}</style></defs><g id="Layer_1" data-name="Layer 1"><path class="cls-1" d="M640.5,205.31,532.87,108S510,143.5,453,143.5c-50.09,0-73.15-27.41-78-34V108s-.17.27-.5.75c-.33-.48-.5-.75-.5-.75v1.45c-4.85,6.64-27.91,34.05-78,34.05-57,0-79.87-35.5-79.87-35.5L108.5,205.31S153,233.5,153,290.5c0,84-44.5,76-44.5,160.34C108.5,546.5,180,601.5,286,601.5c52,0,82.28,32.53,88,39.28V642l.5-.62.5.62v-1.22c5.72-6.75,36-39.28,88-39.28,106,0,177.5-55,177.5-150.66,0-84.34-44.5-76.34-44.5-160.34C596,233.5,640.5,205.31,640.5,205.31Z"/><path class="cls-2" d="M374.5,613.54a138.2,138.2,0,0,0-88.5-32c-48.11,0-88.14-12.06-115.76-34.88s-41.74-55.1-41.74-95.78c0-36.8,9.06-52.31,19.55-70.27,11.7-20,24.95-42.7,24.95-90.07,0-40.77-19-69.12-34.4-85.44L215,136c16.59,13.88,43.64,27.52,81,27.52,38.22,0,63.51-13.7,78.5-26,15,12.3,40.28,26,78.5,26,37.36,0,64.41-13.64,81-27.52l76.4,69.08C595,221.38,576,249.73,576,290.5c0,47.37,13.25,70.06,25,90.07,10.49,18,19.55,33.47,19.55,70.27,0,40.68-14,72.91-41.74,95.78S511.11,581.5,463,581.5A138.2,138.2,0,0,0,374.5,613.54Z"/><path class="cls-3" d="M192.91,297H556.09c-.05-2.13-.09-4.28-.09-6.5a140.68,140.68,0,0,1,26.83-83.4l-50.28-45.47C515.42,172.31,488.9,183.5,453,183.5c-35,0-60.82-10.25-78.5-21.4C356.82,173.25,331,183.5,296,183.5c-35.9,0-62.42-11.19-79.55-21.87L166.17,207.1A140.68,140.68,0,0,1,193,290.5C193,292.72,193,294.87,192.91,297Z"/><path class="cls-4" d="M557.44,317H191.56c-4.09,35.74-16.17,56.43-26.24,73.66-9.76,16.72-16.82,28.79-16.82,60.18,0,34.91,11.28,61.2,34.47,80.36,24,19.82,59.63,30.3,103,30.3a156.47,156.47,0,0,1,88.5,27.09A156.47,156.47,0,0,1,463,561.5c43.4,0,79-10.48,103-30.3,23.19-19.16,34.47-45.45,34.47-80.36,0-31.39-7.06-43.46-16.82-60.18C573.61,373.43,561.53,352.75,557.44,317Z"/></g><g id="Layer_2" data-name="Layer 2"><path class="cls-5" d="M297.18,276.75H282.31l-12-29.2H250.56v29.2H237.24V202.38h34.19a25.35,25.35,0,0,1,12.77,3.11q11.43,6.66,11.43,19.64,0,13.22-12,19.76Zm-14.87-51.62a8.71,8.71,0,0,0-2.89-6.88,11.3,11.3,0,0,0-7.77-2.55H250.56v18.54h21.09a11.48,11.48,0,0,0,7.77-2.5A8.3,8.3,0,0,0,282.31,225.13Z"/><path class="cls-5" d="M371.77,239.23q0,17.43-8.38,28.14T341,278.08q-15.33,0-24-12.32-7.55-10.65-7.55-26.31,0-17.76,8.44-28T341,201.16a27.23,27.23,0,0,1,22.25,10.49Q371.77,222.14,371.77,239.23Zm-13.21.22q0-11.76-4.6-18.42A14.83,14.83,0,0,0,341,214.37,15.35,15.35,0,0,0,327.82,221q-4.77,6.66-4.77,18.42T327.82,258A15.3,15.3,0,0,0,341,264.76q9.54,0,14-8.33Q358.57,249.89,358.56,239.45Z"/><path class="cls-5" d="M455.36,276.75H440.93l-7.22-17.43H401.3L394,276.75H379.43l31.31-74.37h13.54ZM427.94,246l-10.43-25.08L407.07,246Z"/><path class="cls-5" d="M523.84,239.45q0,22.88-18,32.86a35.92,35.92,0,0,1-17.54,4.44h-24V202.38h24a34.73,34.73,0,0,1,17.76,4.77Q523.84,217.26,523.84,239.45Zm-13.32,0q0-14.76-11-20.87a22.41,22.41,0,0,0-11.21-2.88H477.89v47.73h10.43A21.72,21.72,0,0,0,499,260.54Q510.52,254.33,510.52,239.45Z"/><path class="cls-5" d="M308.83,528.1H277V392.83H254.29V365.56q19.71-4.05,28.62-18.36h25.92Z"/><path class="cls-5" d="M503,528.1H357.16q5.4-71,74-99.9A211.44,211.44,0,0,0,460.3,414q11.34-6.88,10.53-16.07,0-8.91-8.91-15t-27.81-6.35q-28.35.81-50.22,22.68L357.7,378.25q32.67-33.48,75.6-34,31.86,0,50.76,15.8T503,398q-.27,19.17-10.26,30.38t-38.07,23.35q-44.55,21.33-53.19,44H503Z"/></g></svg>